<svg xmlns="http://www.w3.org/2000/svg" width="22" height="24" viewBox="0 0 22 24">
  <g id="Layer_2" data-name="Layer 2" transform="translate(-1.25 -1.25)">
    <path id="Path_217204" data-name="Path 217204" d="M6.269,3.758v9.48a.837.837,0,0,1-.558.781.781.781,0,0,1-.279.056H2.087a.848.848,0,0,1-.837-.837V3.758a2.5,2.5,0,0,1,2.365-2.5H3.76a2.51,2.51,0,0,1,2.51,2.5Z" transform="translate(0 0.001)" fill="#cbe5fd"/>
    <path id="Path_217205" data-name="Path 217205" d="M23.005,7.661V23.025a1.946,1.946,0,0,1-.964,1.675,2,2,0,0,1-1.951.042l-.362-.2a2.475,2.475,0,0,0-1.525-.457,2.52,2.52,0,0,0-1.548.468,4.5,4.5,0,0,1-4.813,0A2.6,2.6,0,0,0,10.3,24.1a2.555,2.555,0,0,0-1.536.457l-.35.2a2,2,0,0,1-1.951-.042,1.946,1.946,0,0,1-.964-1.675V3.48A2.243,2.243,0,0,0,3.37,1.25H16.509a6.465,6.465,0,0,1,6.5,6.411Z" transform="translate(0.245 0)" fill="#0b569a"/>
    <g id="Group_130933" data-name="Group 130933" transform="translate(9.786 6.823)">
      <path id="Path_217206" data-name="Path 217206" d="M17.394,7.923H9.587a.837.837,0,0,1,0-1.673h7.807a.837.837,0,0,1,0,1.673Z" transform="translate(-8.75 -6.25)" fill="#fef200"/>
      <path id="Path_217207" data-name="Path 217207" d="M14.048,15.923H9.587a.837.837,0,0,1,0-1.673h4.461a.837.837,0,1,1,0,1.673Z" transform="translate(-8.75 -5.327)" fill="#fef200"/>
      <path id="Path_217208" data-name="Path 217208" d="M17.394,11.923H9.587a.837.837,0,0,1,0-1.673h7.807a.837.837,0,1,1,0,1.673Z" transform="translate(-8.75 -5.789)" fill="#fef200"/>
    </g>
  </g>
</svg>
