<svg xmlns="http://www.w3.org/2000/svg" width="24" height="23.995" viewBox="0 0 24 23.995">
  <g id="Layer_2_00000107569341992878650710000008810265571200598422_" transform="translate(-1.454 -22.886)">
    <g id="Layer_copy_8" transform="translate(2.091 23.134)">
      <g id="_17" transform="translate(0 0)">
        <path id="Path_217209" data-name="Path 217209" d="M353.574,35.934a.636.636,0,0,0-.634-.634h-3.006a.636.636,0,0,0-.634.634v1.875l4.274,3.83Z" transform="translate(-333.008 -34.743)" fill="#390768"/>
        <path id="Path_217210" data-name="Path 217210" d="M23.459,32.231,13.057,22.9a1.651,1.651,0,0,0-2.214,0L.536,32.236A1.659,1.659,0,0,0,2.759,34.7l9.2-8.336L21.249,34.7a1.658,1.658,0,0,0,2.21-2.472Z" transform="translate(-0.628 -22.722)" fill="#390768"/>
        <path id="Path_217211" data-name="Path 217211" d="M73.5,125.968v9.684a1.163,1.163,0,0,0,1.173,1.158H91.614a1.163,1.163,0,0,0,1.173-1.158v-9.679L83.093,117.4Zm13.17-1.4a4.56,4.56,0,0,1,.829,2.524,4.75,4.75,0,0,1-1.009,2.816c-.808,1.022-1.611,2.049-2.419,3.077-.137.177-.28.36-.423.532a.624.624,0,0,1-1.046,0q-.705-.876-1.4-1.768c-.481-.61-.951-1.22-1.432-1.825a4.468,4.468,0,0,1-.972-2.341,4.293,4.293,0,0,1,1.474-3.781,4.022,4.022,0,0,1,2.488-1.064A4.2,4.2,0,0,1,86.67,124.571Z" transform="translate(-71.778 -113.062)" fill="#390768"/>
        <circle id="Ellipse_251" data-name="Ellipse 251" cx="1.77" cy="1.77" r="1.77" transform="translate(9.593 12.404)" fill="#390768"/>
      </g>
    </g>
  </g>
</svg>
