<svg id="plus" xmlns="http://www.w3.org/2000/svg" width="16.004" height="16.004" viewBox="0 0 16.004 16.004">
  <path id="Path_216507" data-name="Path 216507" d="M8,0a8,8,0,1,0,8,8A8.011,8.011,0,0,0,8,0ZM8,0" fill="#919396"/>
  <path id="Path_216508" data-name="Path 216508" d="M130.336,127.5H127.5v2.834a.667.667,0,0,1-1.334,0V127.5h-2.834a.667.667,0,1,1,0-1.334h2.834v-2.834a.667.667,0,1,1,1.334,0v2.834h2.834a.667.667,0,0,1,0,1.334Zm0,0" transform="translate(-118.834 -118.834)" fill="#fafafa"/>
</svg>
