<svg xmlns="http://www.w3.org/2000/svg" width="23.795" height="18" viewBox="0 0 23.795 18">
  <g id="Group_131550" data-name="Group 131550" transform="translate(1.795 17)">
    <rect id="Rectangle_42770" data-name="Rectangle 42770" width="15" height="13" transform="translate(5 -15)" fill="#fff"/>
    <path id="Path_217785" data-name="Path 217785" d="M22,3H7a1.882,1.882,0,0,0-1.59.88L.37,11.45a1.016,1.016,0,0,0,0,1.11l5.04,7.56A1.906,1.906,0,0,0,7,21H22a2.006,2.006,0,0,0,2-2V5A2.006,2.006,0,0,0,22,3ZM18.3,16.3a1,1,0,0,1-1.41,0L14,13.41,11.11,16.3A1,1,0,1,1,9.7,14.89L12.59,12,9.7,9.11A1,1,0,0,1,11.11,7.7L14,10.59,16.89,7.7A1,1,0,0,1,18.3,9.11L15.41,12l2.89,2.89a1.014,1.014,0,0,1,0,1.41Z" transform="translate(-2 -20)"/>
  </g>
</svg>
