<svg xmlns="http://www.w3.org/2000/svg" width="16.002" height="16.002" viewBox="0 0 16.002 16.002">
  <g id="图层_x0020_1" transform="translate(-1.817 -1.809)">
    <circle id="Ellipse_3466" data-name="Ellipse 3466" cx="8.001" cy="8.001" r="8.001" transform="translate(1.817 1.809)" fill="#ee4e5e"/>
    <g id="Group_132027" data-name="Group 132027" transform="translate(6.367 6.36)">
      <path id="Path_222591" data-name="Path 222591" d="M6.606,7.736.955,2.085a.8.8,0,0,1,0-1.13h0a.8.8,0,0,1,1.13,0L7.736,6.606a.8.8,0,0,1,0,1.13h0A.8.8,0,0,1,6.606,7.736Z" transform="translate(-0.722 -0.722)" fill="#fff" fill-rule="evenodd"/>
      <path id="Path_222592" data-name="Path 222592" d="M.955,6.606,6.606.955a.8.8,0,0,1,1.13,0h0a.8.8,0,0,1,0,1.13L2.085,7.736a.8.8,0,0,1-1.13,0h0A.8.8,0,0,1,.955,6.606Z" transform="translate(-0.722 -0.722)" fill="#fff" fill-rule="evenodd"/>
    </g>
  </g>
</svg>
