<svg xmlns="http://www.w3.org/2000/svg" width="35.998" height="39.997" viewBox="0 0 35.998 39.997">
  <path id="Path_170195" data-name="Path 170195" d="M33,16H30a1,1,0,1,0,0,2h3a4,4,0,0,1,4,4V36a4,4,0,0,1-4,4H9a4,4,0,0,1-4-4V22a4,4,0,0,1,4-4h5a1,1,0,1,0,0-2H9a6.006,6.006,0,0,0-6,6V36a6.006,6.006,0,0,0,6,6H33a6.006,6.006,0,0,0,6-6V22A6.006,6.006,0,0,0,33,16Zm-18.274-5.31L20,5.414V33a1,1,0,0,0,1,1h0a1,1,0,0,0,1-1V5.414l5.275,5.275a1,1,0,0,0,1.414-1.414L21.706,2.294A.989.989,0,0,0,21.018,2c-.007,0-.013,0-.019,0l-.014,0a1,1,0,0,0-.694.29L13.31,9.275l-.014.014a1,1,0,1,0,1.428,1.4Z" transform="translate(-3 -2)" fill="#0b569a"/>
</svg>
