<svg id="_x31_1_User" xmlns="http://www.w3.org/2000/svg" width="10" height="12" viewBox="0 0 10 12">
  <g id="Group_132023" data-name="Group 132023" transform="translate(0 0)">
    <path id="Path_222587" data-name="Path 222587" d="M56.591,10.749h-.409a.352.352,0,0,1-.344-.351v-.384l.463-.454a1.208,1.208,0,0,0,.494-.964.433.433,0,0,0,.227-.083,1.073,1.073,0,0,0,.382-.7,1.056,1.056,0,0,0-.119-.78.434.434,0,0,0-.2-.161V6.87A2.769,2.769,0,0,0,57.219,4.7a.9.9,0,0,0-.7-.4,1.885,1.885,0,0,0-1.753-1.225,3.02,3.02,0,0,0-2.785,1.8A4.314,4.314,0,0,0,51.93,7a1.033,1.033,0,0,0-.146.813c.083.448.334.762.609.78a1.206,1.206,0,0,0,.5.968l.459.452V10.4a.356.356,0,0,1-.357.351h-.4a2.981,2.981,0,0,0-3,2.954v.656a.715.715,0,0,0,.72.709h8.56a.715.715,0,0,0,.72-.709V13.7a2.983,2.983,0,0,0-3-2.954ZM53.1,9.366c-.284-.282-.415-.41-.415-.782V8.423a.145.145,0,0,0-.213-.125c-.179.1-.359-.308-.4-.529a.957.957,0,0,1,.019-.461.349.349,0,0,0,.2.066h.044a.35.35,0,0,0,.35-.321l.044-.406a.387.387,0,0,1,.35-.359,5.928,5.928,0,0,0,2.514-.616.38.38,0,0,1,.3-.042.413.413,0,0,1,.259.215,1.646,1.646,0,0,1,.152,1.119.289.289,0,0,0-.006.064.351.351,0,0,0,.674.13.123.123,0,0,1,.006-.015.137.137,0,0,1,.071.057.8.8,0,0,1,.069.569.8.8,0,0,1-.265.512.138.138,0,0,1-.1.032A.113.113,0,0,1,56.72,8.3a.141.141,0,0,0-.142,0,.139.139,0,0,0-.071.121v.161c0,.368-.129.5-.411.777l-.5.5s0,0,0,0l-.261.255a.671.671,0,0,1-.472.191h-.53a.685.685,0,0,1-.472-.191L53.6,9.859s0,0,0,0Zm1.692,4.254a.192.192,0,0,1-.384,0v-.282a.192.192,0,0,1,.384,0Zm-.194-1.491A1.443,1.443,0,0,1,53.179,11a.632.632,0,0,0,.461-.607v-.1l.015.015a.975.975,0,0,0,.674.272h.53a.95.95,0,0,0,.676-.274l.015-.015v.1a.633.633,0,0,0,.461.607,1.442,1.442,0,0,1-1.417,1.124Z" transform="translate(-49.595 -3.068)" fill="#0b569a"/>
  </g>
</svg>
