<svg xmlns="http://www.w3.org/2000/svg" width="9.64" height="11.07" viewBox="0 0 9.64 11.07">
  <path id="logout" d="M40.223,10.551a.519.519,0,0,1-.519.519H34.812a1.732,1.732,0,0,1-1.73-1.73V1.73A1.732,1.732,0,0,1,34.812,0H39.7a.519.519,0,0,1,0,1.038H34.812a.693.693,0,0,0-.692.692V9.341a.693.693,0,0,0,.692.692H39.7A.519.519,0,0,1,40.223,10.551ZM42.57,5.168,40.1,2.7a.519.519,0,1,0-.734.734l1.58,1.58H36.865a.519.519,0,1,0,0,1.038H40.95l-1.58,1.58a.519.519,0,0,0,.734.734L42.57,5.9A.519.519,0,0,0,42.57,5.168Z" transform="translate(-33.082)" fill="#9da8b5"/>
</svg>
