<svg xmlns="http://www.w3.org/2000/svg" width="16" height="20" viewBox="0 0 16 20">
  <g id="trash" transform="translate(-48)">
    <path id="Path_217786" data-name="Path 217786" d="M62.462,2.5H59.077V1.876A1.861,1.861,0,0,0,57.231,0H54.769a1.861,1.861,0,0,0-1.846,1.876V2.5H49.538A1.551,1.551,0,0,0,48,4.065V5.316a.62.62,0,0,0,.615.625H63.385A.62.62,0,0,0,64,5.316V4.065A1.551,1.551,0,0,0,62.462,2.5Zm-8.308-.625a.621.621,0,0,1,.615-.625h2.462a.621.621,0,0,1,.615.625V2.5H54.154Z" transform="translate(0)"/>
    <path id="Path_217787" data-name="Path 217787" d="M73.556,184a.194.194,0,0,0-.192.2l.507,10.829a1.855,1.855,0,0,0,1.84,1.787h9.324a1.855,1.855,0,0,0,1.84-1.787l.507-10.829a.194.194,0,0,0-.192-.2Zm9.273,1.564a.614.614,0,1,1,1.228,0v8.131a.614.614,0,1,1-1.228,0Zm-3.07,0a.614.614,0,1,1,1.228,0v8.131a.614.614,0,1,1-1.228,0Zm-3.07,0a.614.614,0,1,1,1.228,0v8.131a.614.614,0,1,1-1.228,0Z" transform="translate(-24.373 -176.821)"/>
  </g>
</svg>
