<svg id="woman-avatar" xmlns="http://www.w3.org/2000/svg" width="9" height="12" viewBox="0 0 9 12">
  <g id="Group_132024" data-name="Group 132024" transform="translate(0)">
    <path id="Path_222588" data-name="Path 222588" d="M118.17,7.018a9.511,9.511,0,0,0,1.708-.076,1.51,1.51,0,0,0,.738,0c1.667.08,2.967.547,2.967-2.81,0-2.279-1.5-4.129-3.342-4.129S116.9,1.85,116.9,4.129c0,1.833.354,2.545.93,2.792A1.244,1.244,0,0,0,118.17,7.018Zm-.532-4.176c.35.48,1.257.377,2.04-.23a2.966,2.966,0,0,0,.512-.509.456.456,0,0,1,.054.009,1.819,1.819,0,0,1,.226.065,2.086,2.086,0,0,1,.214.1,1.961,1.961,0,0,1,.2.127,1.793,1.793,0,0,1,.167.15,1.182,1.182,0,0,1,.133.154,1.511,1.511,0,0,1,.1.145.678.678,0,0,1,.068.121l.054.109s-.007-.042-.02-.121a1.1,1.1,0,0,0-.029-.138,1.148,1.148,0,0,0-.056-.179,1.706,1.706,0,0,0-.09-.2,2.294,2.294,0,0,0-.131-.217,2.5,2.5,0,0,0-.176-.212,2.245,2.245,0,0,0-.214-.2,2.247,2.247,0,0,0-.223-.145,1.73,1.73,0,0,0,.083-.208,2.655,2.655,0,0,1,.794.509c.837.828.508,1.79,1.153,1.154a1.72,1.72,0,0,0,.25-.31.288.288,0,0,1,.063,0,.3.3,0,0,1,.176.143.751.751,0,0,1,.054.565.648.648,0,0,1-.456.518l-.135.018-.036.132c-.32,1.15-1.185,2.373-2.161,2.373s-1.839-1.223-2.161-2.373l-.036-.132-.135-.018a.658.658,0,0,1-.456-.518.751.751,0,0,1,.054-.565A.3.3,0,0,1,117.638,2.842Z" transform="translate(-115.826)"/>
    <path id="Path_222589" data-name="Path 222589" d="M75.719,327.9a2.536,2.536,0,0,1-.965,1.02c-.828.42-1.444.763-1.444.763l0,0v-.007l-.007,0-.007,0v.007l0,0s-.614-.339-1.445-.763a2.551,2.551,0,0,1-.965-1.02,3.163,3.163,0,0,0-2.081,2.623v2.058h9v-2.058A3.17,3.17,0,0,0,75.719,327.9Z" transform="translate(-68.8 -320.581)"/>
  </g>
</svg>
